<?xml version="1.0" encoding="utf-8"?>
<svg version="1.1" id="Layer_1" xmlns="http://www.w3.org/2000/svg" xmlns:xlink="http://www.w3.org/1999/xlink" x="0px" y="0px"
	 viewBox="0 0 1660.305 1661.645" enable-background="new 0 0 1660.305 1661.645" xml:space="preserve">
<g>
	<g>
		<g>
			<path fill="#00008B" d="M830.343,32.493L830.343,32.493c208.624,0.082,417.517,86.609,565.095,234.07
				c147.461,147.577,233.988,356.471,234.07,565.095c-0.082,208.624-86.609,417.517-234.07,565.095
				c-147.577,147.461-356.471,233.988-565.095,234.07l0,0c-208.624-0.082-417.517-86.609-565.095-234.07
				C117.787,1249.175,31.26,1040.282,31.178,831.658c0.082-208.624,86.609-417.517,234.07-565.095
				C412.826,119.102,621.719,32.575,830.343,32.493z"/>
			<path id="Commonwealth_Star_2_" fill="#FFFFFF" d="M276.241,1086.271c25.469,73.24,57.793,142.854,95.853,207.062
				c11.875-23.778,27.629-47.716,46.36-71.774c2.55,57.782,11.844,112.76,29.061,162.413
				c37.272,30.083,74.501,58.043,111.067,84.035c-17.832,3.656-34.44,7.281-49.77,10.96
				c43.311,45.827,91.028,83.367,141.218,109.662c-43.678-19.64-88.253-44.872-132.855-74.991
				c24.704,30.022,56.328,54.863,92.14,73.249c-57.171-26.083-110.423-63.644-156.771-109.996
				c-19.386-4.716-38.031-9.598-55.823-14.737c-16.346-24.39-28.081-51.878-34.312-80.87
				c-46.428-49.743-89.02-104.675-126.322-163.798c29.617,25.914,60.997,50.753,93.575,74.722
				C303.153,1228.392,285.48,1158.768,276.241,1086.271L276.241,1086.271z"/>
			<path id="Star_Alpha_Crucis_2_" fill="#FFFFFF" d="M1223.154,1430.365c-16.506,23.994-34.733,46.314-54.502,66.588
				c15.224-7.841,30.462-15.95,45.672-24.343c-23.516,19.103-47.519,36.785-71.866,52.931c-6.963,9.499-15.058,18.362-24.07,26.491
				c-7.674,1.714-15.43,3.387-23.26,5.024c-24.277,15.772-49.738,29.225-75.994,40.106c16.647-7.751,32.321-16.925,46.688-27.461
				c-21.534,10.648-42.922,20.083-64.061,28.213c25.141-10.909,49.827-24.357,73.758-40.05c-4.214-1.185-8.683-2.356-13.4-3.527
				c17.057-8.659,34.353-17.882,51.836-27.67c14.683-15.695,27.881-33.086,39.411-51.823c1.292,7.699,1.72,15.303,1.215,22.643
				C1178.277,1476.957,1201.185,1454.508,1223.154,1430.365L1223.154,1430.365z"/>
			<path id="Star_Beta_Crucis_2_" fill="#FFFFFF" d="M1120.437,492.451c11.154,34.039,21.574,68.865,31.164,104.369
				c14.182-13.046,27.854-26.073,40.953-39.109c-3.84,30.823-9.001,62.044-15.289,93.563c16.648,19.535,32.985,39.223,48.916,59.088
				c-16.595,3.318-33.457,6.62-50.572,9.913c4.674,38.559,8.195,77.355,10.507,116.237c-12.074-28.538-24.9-56.96-38.318-85.252
				c-11.307,28.435-23.388,56.86-36.079,85.26c2.6-38.899,4.239-77.744,4.852-116.399c-18.324-3.427-36.801-6.834-55.418-10.228
				c15.051-19.68,29.633-39.313,43.641-58.925c-12.389-31.804-25.246-63.169-38.42-94.065c17.9,13.141,35.763,26.38,53.54,39.744
				C1121.255,561.283,1121.48,526.503,1120.437,492.451z"/>
			<path id="Star_Gamma_Crucis_2_" fill="#FFFFFF" d="M998.475,60.813c26.167,9.772,52.135,21.895,77.638,36.133
				c-3.915-5.178-8.653-9.991-14.018-14.402c20.202,10.91,39.29,23.647,56.915,38.051c18.214,9.226,36.506,19.034,54.812,29.424
				c-4.234,1.468-8.766,2.909-13.587,4.34c24.78,20.376,48.502,42.931,70.973,67.372c-21.338-18.091-42.971-35.157-64.789-51.149
				c10.943,15.484,20.417,32.21,28.303,49.875c-18.142-24.305-37.809-46.775-58.833-67.039c-9.583-2.04-19.251-4.04-28.994-6.003
				c-3.577-9.871-8.385-19.247-14.278-27.889c-22.485-14.426-45.056-27.328-67.582-38.558c13.377,4.891,26.988,10.071,40.804,15.548
				C1044.551,82.352,1021.958,70.376,998.475,60.813z"/>
			<path id="Star_Delta_Crucis_2_" fill="#FFFFFF" d="M1424.582,353.41c21.633,29.332,41.54,60.097,59.532,92.044
				c-0.18-11.495-1.275-22.891-3.269-34.063c12.948,26.866,24.021,54.761,33.131,83.404c12.683,17.878,24.543,36.102,35.463,54.641
				c-4.085,2.934-8.699,5.765-13.775,8.536c12.844,35.678,23.368,72.248,31.46,109.368c-9.702-27.35-20.91-54.354-33.475-80.889
				c2.865,26.4,4.017,53.218,3.518,80.241c-5.83-37.155-14.056-73.791-24.64-109.55c-8.811-3.436-18.035-6.794-27.649-10.099
				c1.574-18.011,1.975-35.884,1.153-53.479c-16.157-29.129-33.79-57.432-52.729-84.774c13.388,11.791,26.331,23.805,38.756,36.058
				C1458.374,413.121,1442.505,382.526,1424.582,353.41z"/>
			<path id="Star_Epsilon_Crucis_2_" fill="#FFFFFF" d="M1494.335,831.658c2.604,22.897,4.381,45.812,5.301,68.674
				c6.474,1.742,12.774,3.5,18.895,5.278c-6,15.959-12.506,31.841-19.482,47.626c-1.453,23.684-3.821,47.228-7.115,70.547
				c-2.776-12.62-6.035-25.273-9.746-37.938c-7.832,12.92-16.012,25.745-24.51,38.472c6.261-23.396,11.71-47.03,16.319-70.833
				c-3.527-15.828-7.604-31.681-12.193-47.532c7.573-1.828,14.985-3.67,22.232-5.532
				C1488.277,877.569,1491.721,854.627,1494.335,831.658L1494.335,831.658z"/>
			<path id="White_Cross_2_" fill="#FFFFFF" d="M830.343,32.493L830.343,32.493c-85.171-4.927-175.015,30.616-247.643,94.568
				c75.266-2.3,159.227-3.329,247.643-3.33c0,36.055,0,77.612,0,124.378c0,51.632,0,107.735,0,167.867
				c-155.684,0.001-303.141,1.061-434.678,3.432c-46.437,126.787-69.695,268.232-69.719,412.249c-53.92,0-103.166,0-147.367,0
				c0.031-142.959,30.56-284.674,89.428-409.231c-75.378,2.348-139.452,4.006-129.761,9.649
				c69.683-120.622,171.892-222.831,292.515-292.515c-4.099-7.204,33.945-7.231,78.198-9.551
				C605.348,63.725,719.469,28.725,830.343,32.493z"/>
			<path id="White_Diagonal_2_" fill="#FFFFFF" d="M830.343,32.493L830.343,32.493c-89.014-0.692-172.625,11.255-238.246,42.329
				c-56.505,26.806-97.219,76.016-98.946,130.572c-1.915,62.806,35.876,135.89,91.842,211.009
				c65.478,87.83,151.853,175.831,245.348,269.193c0,48.369,0,97.119,0,146.061c-48.942,0-97.692,0-146.061,0
				c-93.878-95.49-180.125-188.487-244.188-283.438c-56.25-83.433-92.384-167.223-89.714-241.479
				C355.33,174.36,515.634,74.503,690.714,44.786C736.771,36.617,783.567,32.497,830.343,32.493L830.343,32.493z"/>
			<path id="White_Diagonal_Flipped_2_" fill="#FFFFFF" d="M830.343,32.493L830.343,32.493c-10.477-2.633-26.986,0.728-47.9,6.343
				c-26.099,7.013-56.475,17.765-90.69,31.708c-80.191,32.694-170.161,77.986-262.243,137.123
				C237.676,330.955,68.85,501.335,43.471,692.029c-8.169,46.058-12.288,92.853-12.292,139.629c-0.724,0,1.303,0,6.096,0
				c25.978-197.225,196.326-379.48,389.02-527.209c93.058-71.308,184.069-129.963,264.353-179.433
				c65.106-40.113,113.803-67.024,139.695-86.428C830.343,33.796,830.343,31.769,830.343,32.493L830.343,32.493z"/>
			<path id="Red_Cross_2_" fill="#FF0000" d="M830.343,32.493L830.343,32.493c-109.18-5.664-224.341,47.858-311.292,139.44
				c92.903-2.971,198.757-4.266,311.292-4.267c0,51.777,0,110.863,0,176.621c-156.435,0.001-303.313,1.318-431.771,4.344
				c-69.949,142.107-105.479,310.725-105.516,483.026c-31.265,0-60.819,0-88.58,0c0.042-171.592,42.103-340.811,122.406-481.04
				c-82.257,2.683-153.665,3.534-143.077,11.303c49.179-67.667,109.134-127.622,176.801-176.801
				c-6.359-8.871,46.105-8.568,106.342-11.229C570.076,80.289,702.686,27.67,830.343,32.493z"/>
			<path id="Red_Diagonals_2_" fill="#FF0000" d="M830.343,32.493c-137.297,0.033-270.457,27.659-349.961,99.242
				c-7.343,0.516-14.124,1.06-20.33,1.651c71.261-54.316,171.115-83.516,276.939-95.423
				C767.964,34.323,799.156,32.495,830.343,32.493L830.343,32.493z M830.343,32.493L830.343,32.493
				c-13.271-5.02-40.581,5.16-77.337,18.839c-47.676,17.753-103.693,43-165.869,75.595c12.792-0.38,25.956-0.724,39.47-1.034
				c58.061-31.983,108.573-56.858,149.597-74.898C805.808,37.982,830.307,26.399,830.343,32.493z"/>
			<path id="Red_Diagonals_Rotated_2_" fill="#FF0000" d="M830.343,831.658c-72.748-72.748-144.068-143.965-208.491-215.845
				c-60.407-67.416-112.572-132.783-149.567-197.605c24.218-0.327,48.998-0.617,74.299-0.871
				c71.598,103.671,173.621,206.559,283.759,316.629C830.343,766.435,830.343,799.018,830.343,831.658L830.343,831.658z
				 M31.178,831.658c-0.787,0-0.355,0,1.303,0c10.534-144.317,104.441-287.851,229.865-409.052
				c-15.358,0.493-29.769,1.015-43.213,1.579C102.986,544.291,24.952,690.783,31.178,831.658z"/>
		</g>
	</g>
</g>
</svg>
